<svg width="80" height="24" viewBox="0 0 80 24" fill="none" xmlns="http://www.w3.org/2000/svg">
<path d="M25.2001 5.94795C24.9121 4.86795 24.0601 4.01595 22.9761 3.72395C21.0161 3.19995 13.1521 3.19995 13.1521 3.19995C13.1521 3.19995 5.29208 3.19995 3.32808 3.72395C2.24808 4.01195 1.39608 4.86395 1.10408 5.94795C0.580078 7.90795 0.580078 12 0.580078 12C0.580078 12 0.580078 16.092 1.10408 18.052C1.39208 19.132 2.24408 19.9839 3.32808 20.2759C5.29208 20.7999 13.1521 20.7999 13.1521 20.7999C13.1521 20.7999 21.0161 20.7999 22.9761 20.2759C24.0561 19.9879 24.9081 19.136 25.2001 18.052C25.7241 16.092 25.7241 12 25.7241 12C25.7241 12 25.7241 7.90795 25.2001 5.94795Z" fill="#FF0000"/>
<path d="M10.6401 15.772L17.1721 12L10.6401 8.22803V15.772Z" fill="white"/>
<path d="M37.0757 19.2119C36.5797 18.8759 36.2237 18.3559 36.0157 17.6479C35.8077 16.9399 35.6997 15.9999 35.6997 14.8239V13.2239C35.6997 12.0359 35.8197 11.0839 36.0597 10.3639C36.2997 9.6439 36.6757 9.1199 37.1837 8.7919C37.6917 8.4639 38.3597 8.2959 39.1877 8.2959C40.0037 8.2959 40.6557 8.4639 41.1477 8.7999C41.6397 9.1359 41.9997 9.6599 42.2277 10.3719C42.4557 11.0839 42.5677 12.0359 42.5677 13.2199V14.8199C42.5677 15.9959 42.4557 16.9399 42.2357 17.6519C42.0157 18.3639 41.6557 18.8879 41.1557 19.2159C40.6597 19.5439 39.9837 19.7119 39.1317 19.7119C38.2597 19.7159 37.5717 19.5479 37.0757 19.2119ZM39.8637 17.4839C39.9997 17.1239 40.0717 16.5359 40.0717 15.7239V12.2879C40.0717 11.4959 40.0037 10.9199 39.8637 10.5519C39.7277 10.1879 39.4837 10.0039 39.1357 10.0039C38.7997 10.0039 38.5637 10.1879 38.4237 10.5519C38.2877 10.9159 38.2157 11.4959 38.2157 12.2879V15.7239C38.2157 16.5399 38.2797 17.1279 38.4117 17.4839C38.5437 17.8439 38.7837 18.0239 39.1317 18.0239C39.4837 18.0239 39.7237 17.8439 39.8637 17.4839Z" fill="#282828"/>
<path d="M75.2639 14.852V15.408C75.2639 16.116 75.2839 16.644 75.3279 17C75.3679 17.352 75.4559 17.612 75.5879 17.772C75.7199 17.932 75.9239 18.016 76.1999 18.016C76.5719 18.016 76.8279 17.872 76.9639 17.584C77.0999 17.296 77.1759 16.816 77.1879 16.144L79.3279 16.268C79.3399 16.364 79.3439 16.496 79.3439 16.664C79.3439 17.684 79.0639 18.444 78.5079 18.948C77.9519 19.452 77.1639 19.704 76.1439 19.704C74.9199 19.704 74.0639 19.32 73.5719 18.552C73.0799 17.784 72.8359 16.6 72.8359 14.992V13.068C72.8359 11.412 73.0919 10.208 73.5999 9.44396C74.1079 8.68396 74.9799 8.30396 76.2159 8.30396C77.0679 8.30396 77.7199 8.45996 78.1759 8.77196C78.6319 9.08396 78.9519 9.56795 79.1399 10.228C79.3239 10.888 79.4199 11.8 79.4199 12.96V14.848H75.2639V14.852ZM75.5799 10.212C75.4559 10.368 75.3719 10.624 75.3279 10.976C75.2839 11.328 75.2639 11.868 75.2639 12.584V13.376H77.0799V12.584C77.0799 11.876 77.0559 11.34 77.0079 10.976C76.9599 10.612 76.8719 10.352 76.7479 10.204C76.6239 10.056 76.4279 9.97996 76.1639 9.97996C75.8999 9.97596 75.7039 10.056 75.5799 10.212Z" fill="#282828"/>
<path d="M31.0359 14.6438L28.2119 4.44785H30.6759L31.6639 9.06785C31.9159 10.2078 32.0999 11.1758 32.2199 11.9798H32.2919C32.3759 11.4038 32.5599 10.4398 32.8479 9.08385L33.8719 4.44385H36.3359L33.4799 14.6438V19.5358H31.0359V14.6438Z" fill="#282828"/>
<path d="M50.5799 8.51196V19.532H48.6399L48.4239 18.184H48.3719C47.8439 19.204 47.0519 19.712 45.9999 19.712C45.2679 19.712 44.7279 19.472 44.3799 18.992C44.0319 18.512 43.8599 17.764 43.8599 16.744V8.51196H46.3399V16.604C46.3399 17.096 46.3919 17.448 46.4999 17.656C46.6079 17.864 46.7879 17.972 47.0399 17.972C47.2559 17.972 47.4639 17.908 47.6599 17.776C47.8559 17.644 48.0039 17.476 48.0999 17.272V8.51196H50.5799Z" fill="#282828"/>
<path d="M63.3079 8.51196V19.532H61.3679L61.1519 18.184H61.0999C60.5719 19.204 59.7799 19.712 58.7279 19.712C57.9959 19.712 57.4559 19.472 57.1079 18.992C56.7599 18.512 56.5879 17.764 56.5879 16.744V8.51196H59.0679V16.604C59.0679 17.096 59.1199 17.448 59.2279 17.656C59.3359 17.864 59.5159 17.972 59.7679 17.972C59.9839 17.972 60.1919 17.908 60.3879 17.776C60.5839 17.644 60.7319 17.476 60.8279 17.272V8.51196H63.3079Z" fill="#282828"/>
<path d="M57.3238 6.44375H54.8598V19.5318H52.4318V6.44375H49.9678V4.44775H57.3198V6.44375H57.3238Z" fill="#282828"/>
<path d="M71.5197 10.2758C71.3677 9.57985 71.1277 9.07585 70.7917 8.76385C70.4557 8.45185 69.9957 8.29585 69.4077 8.29585C68.9517 8.29585 68.5277 8.42385 68.1317 8.68385C67.7357 8.93985 67.4317 9.27985 67.2157 9.69985H67.1957V3.89185H64.8037V19.5358H66.8517L67.1037 18.4918H67.1557C67.3477 18.8638 67.6357 19.1558 68.0197 19.3718C68.4037 19.5878 68.8277 19.6958 69.2957 19.6958C70.1357 19.6958 70.7517 19.3078 71.1477 18.5358C71.5437 17.7638 71.7397 16.5558 71.7397 14.9118V13.1678C71.7437 11.9358 71.6677 10.9718 71.5197 10.2758ZM69.2437 14.7718C69.2437 15.5758 69.2117 16.2038 69.1437 16.6598C69.0797 17.1158 68.9677 17.4398 68.8117 17.6318C68.6557 17.8238 68.4477 17.9198 68.1837 17.9198C67.9797 17.9198 67.7917 17.8718 67.6157 17.7758C67.4437 17.6798 67.2997 17.5358 67.1917 17.3438V11.0838C67.2757 10.7838 67.4197 10.5398 67.6237 10.3478C67.8277 10.1558 68.0477 10.0598 68.2877 10.0598C68.5397 10.0598 68.7357 10.1598 68.8717 10.3558C69.0077 10.5518 69.1037 10.8878 69.1597 11.3518C69.2117 11.8198 69.2397 12.4838 69.2397 13.3478V14.7718H69.2437Z" fill="#282828"/>
</svg>
